<svg width="24" height="24" viewBox="0 0 24 24" fill="none" xmlns="http://www.w3.org/2000/svg">
<path d="M5.67 5.67C3.63 7.71 2.35 10.27 2.06 12.88C1.76 15.58 2.54 18.01 4.26 19.73C5.74 21.21 7.75 22 10 22C10.37 22 10.74 21.98 11.11 21.94C13.72 21.65 16.29 20.37 18.32 18.33C20.35 16.29 21.64 13.73 21.93 11.12C22.23 8.42 21.45 5.99 19.73 4.27C16.24 0.780004 9.93 1.41 5.67 5.68V5.67ZM4.05 13.1C4.29 10.94 5.37 8.8 7.09 7.08C9.12 5.05 11.67 3.99 13.98 3.99C15.65 3.99 17.19 4.54 18.32 5.67L18.33 5.68L16.86 5.81C13.73 6.09 11.37 8.66 11.37 11.78C11.37 13.74 9.95 15.4 8 15.72L4.42 16.31C4.06 15.34 3.92 14.25 4.05 13.08V13.1ZM19.95 10.89C19.71 13.05 18.63 15.19 16.91 16.91C15.19 18.63 13.06 19.7 10.89 19.95C8.8 20.18 6.96 19.6 5.67 18.32C5.62 18.27 5.59 18.22 5.54 18.17L8.31 17.71C9.71842 17.4854 11.0006 16.7659 11.9262 15.6809C12.8518 14.5958 13.3602 13.2162 13.36 11.79C13.36 9.71 14.94 8 17.03 7.81L19.54 7.58C19.93 8.56 20.07 9.68 19.94 10.89H19.95Z" fill="#6F4E37"/>
</svg>
