<svg width="24" height="24" viewBox="0 0 24 24" fill="none" xmlns="http://www.w3.org/2000/svg">
<path d="M17 14V18C17 19.66 15.66 21 14 21H8C6.34 21 5 19.66 5 18V14H17Z" fill="#6F4E37"/>
<path d="M17 9V18C17 19.66 15.66 21 14 21H8C6.34 21 5 19.66 5 18V9H17Z" stroke="#6F4E37" stroke-width="2" stroke-linecap="round" stroke-linejoin="round"/>
<path d="M17 9H20C20.55 9 21 9.45 21 10V13C21 13.55 20.55 14 20 14H17" stroke="#6F4E37" stroke-width="2" stroke-linecap="round" stroke-linejoin="round"/>
<mask id="mask0_8_24" style="mask-type:luminance" maskUnits="userSpaceOnUse" x="4" y="-9" width="16" height="28">
<path d="M8 -8C8 -6 6 -6 6 -4C6 -2 8 -2 8 0C8 2 6 2 6 4C6 6 8 6 8 8M12 -8C12 -6 10 -6 10 -4C10 -2 12 -2 12 0C12 2 10 2 10 4C10 6 12 6 12 8M16 -8C16 -6 14 -6 14 -4C14 -2 16 -2 16 0C16 2 14 2 14 4C14 6 16 6 16 8" stroke="white" stroke-width="2" stroke-linecap="round" stroke-linejoin="round"/>
<path d="M4 2H20V7H4V19H20V-5H4V2Z" fill="black"/>
</mask>
<g mask="url(#mask0_8_24)">
<path d="M0 0H24V24H0V0Z" fill="#6F4E37"/>
</g>
</svg>
