<svg width="21" height="21" viewBox="0 0 21 21" fill="none" xmlns="http://www.w3.org/2000/svg">
<path d="M8.60606 3.759C8.62247 3.85941 8.57259 3.94275 8.40525 4.02675C8.06597 3.89134 7.69902 3.83979 7.33556 3.87647C6.91753 3.90994 6.56644 4.04381 6.61369 4.32797C6.67931 4.61213 7.08159 4.77947 7.80019 4.71253C9.555 4.56225 9.53859 3.37509 12.1124 3.14147C14.1179 2.95772 15.2381 3.57591 15.3884 4.32797C15.5052 4.91269 15.0209 5.481 13.5667 5.59847C12.2797 5.71528 11.5277 5.36419 11.4607 5.01375C11.4273 4.83 11.5264 4.56225 12.1459 4.49531C12.2115 4.77947 12.5639 5.08003 13.3993 4.99669C14.005 4.9455 14.5031 4.725 14.4375 4.39688C14.3719 4.04578 13.7353 3.84563 12.7312 3.92897C10.6923 4.11272 10.1909 5.23294 8.4525 5.38322C7.21875 5.49675 6.216 5.04591 6.08212 4.37719C6.03225 4.1265 6.03225 3.54178 7.33556 3.42431C8.00428 3.37444 8.53912 3.49059 8.60606 3.759ZM2.08753 10.7454C1.54568 11.4136 1.27176 12.2595 1.31906 13.1184C1.34649 13.5109 1.45761 13.8929 1.64494 14.2388C1.83228 14.5847 2.09149 14.8865 2.40516 15.1239C2.71082 15.3697 3.06767 15.5438 3.44948 15.6335C3.83128 15.7233 4.22834 15.7263 4.61147 15.6424C4.94677 15.5602 5.27574 15.454 5.59584 15.3247C4.93366 15.3238 4.29354 15.0867 3.7905 14.656C3.48316 14.4421 3.22348 14.1668 3.02786 13.8475C2.83223 13.5282 2.70489 13.1718 2.65387 12.8008C2.58023 12.4621 2.57803 12.1117 2.6474 11.772C2.71678 11.4323 2.85622 11.1109 3.05681 10.8281C3.27547 10.5504 3.54822 10.32 3.85854 10.1508C4.16885 9.9816 4.51029 9.87714 4.86216 9.84375C5.61553 9.79069 6.3629 10.0101 6.96806 10.4619C6.79559 10.2563 6.60543 10.0661 6.39975 9.89363C6.07843 9.65373 5.70755 9.48868 5.31423 9.41056C4.92091 9.33245 4.51511 9.34323 4.1265 9.44212C3.31036 9.61307 2.58505 10.0763 2.08753 10.7454ZM11.0467 6.88406C9.2109 6.89826 7.37851 6.72454 5.57812 6.36563C4.09303 5.99813 3.3075 5.59716 3.3075 5.07938C3.3075 4.86216 3.40791 4.67841 3.70847 4.46119C2.77266 4.82869 2.27128 5.12991 2.27128 5.59781C2.32116 6.11625 3.15722 6.63403 4.86216 7.035C6.87484 7.48496 8.93413 7.69249 10.9961 7.65319C13.0576 7.69488 15.1165 7.48731 17.1281 7.035C18.8344 6.63403 19.6521 6.09919 19.6521 5.59781C19.6521 5.23031 19.2846 4.87594 18.6158 4.61344C18.6937 4.66138 18.7588 4.72751 18.8054 4.80616C18.852 4.88481 18.8789 4.97362 18.8836 5.06494C18.8836 5.58338 18.1145 6.00075 16.5605 6.35184C14.747 6.72669 12.8984 6.90512 11.0467 6.88406ZM17.1977 8.32125C15.1823 8.75443 13.125 8.96177 11.0637 8.93944C8.98598 8.95649 6.91247 8.74923 4.87922 8.32125C3.44203 7.95375 2.67291 7.55212 2.40581 7.13475C2.67721 8.89307 3.2547 10.5902 4.11206 12.1492C4.73025 13.085 5.34909 13.904 5.96728 14.7899C6.22158 15.2821 6.41253 15.8044 6.53559 16.3446C6.95277 16.9125 7.557 17.315 8.24184 17.4812C9.11944 17.7973 10.0516 17.9336 10.983 17.8822H11.0834C12.0407 17.9242 12.9976 17.7883 13.9053 17.4812C14.5645 17.2898 15.1446 16.8913 15.5597 16.3446H15.6096C15.7139 15.806 15.8882 15.2833 16.128 14.7899C16.7462 13.904 17.365 13.0837 17.9832 12.1492C18.8235 10.5829 19.3993 8.88864 19.6875 7.13475C19.3535 7.60266 18.5843 8.00625 17.197 8.32191L17.1977 8.32125Z" fill="#6F4E37"/>
</svg>
